<svg width="800px" height="800px">
  <defs>
    <linearGradient id="logo-gradient" x1="50%" y1="0%" x2="50%" y2="100%">

      <stop offset="0%" stop-color="#7A5FFF">
        <animate attributeName="stop-color" values="#7A5FFF; #01FF89; #7A5FFF" dur="10s" repeatCount="indefinite"></animate>
      </stop>

      <stop offset="100%" stop-color="#01FF89">
        <animate attributeName="stop-color" values="#01FF89; #7A5FFF; #01FF89" dur="10s" repeatCount="indefinite"></animate>
      </stop>

    </linearGradient>

  </defs>
  <g>
    <path d="m 693.27757,409.52687 q -1.145,-5.91318 -2.3584,-11.66686 a 0.01116,0.01116 0 0 1 -0.011,-0.0114 c -10.2313,-48.54736 -24.0174,-88.356 -40.3441,-120.82721 l -43.2609,-14.8798 32.608,-4.65991 c -13.1821,-22.36528 -27.7087,-40.6859 -43.1468,-55.55431 l -79.4578,9.08053 59.975,-25.70355 c -110.2199,-82.90989 -254.7227,-16.31535 -294.0984,4.61436 -5.4004,2.85974 -8.8185,4.87638 -9.9122,5.5258 -0.011,0 -0.011,0 -0.023,0.0114 -0.2393,0.14811 -0.3532,0.21647 -0.3532,0.21647 l 22.3539,11.6099 h 0.011 l 396.9923,206.20948 z" fill="url('#logo-gradient')"  style="fill-opacity:0.34901151" />
  </g>
  <g>
    <path
     d="m 251.52517,145.22797 5.54297,45.72071 -28.04102,-39.58399 7.64454,63.06446 c -10.3298,8.72573 -21.87032,24.68801 -24.50782,52.94726 l -105.5332,-94.76367 108.36914,140.86133 c 2.26034,12.24586 5.6748,25.74315 10.70313,40.82812 0,0 25.817,72.26898 12.9082,105.83399 -12.9087,33.54222 67.13144,72.25706 90.33984,0 23.2312,-72.27985 30.99024,-141.97266 30.99024,-141.97266 0,0 26.70612,56.27152 24.07422,112.70313 -1.0823,23.12864 0.97883,46.28054 7.21093,68.55468 0.638,2.33565 1.3343,4.67119 2.0293,7.04102 8.397,28.19871 21.49833,64.47436 40.79883,99.55469 a 335.91344,335.91344 0 0 0 31.37695,47.56836 339.57858,339.57858 0 0 0 45.07227,-18.3086 345.97431,345.97431 0 0 0 181.74804,-221.78515 l 1.02539,-3.96485 c 0.51267,-2.03942 1.00357,-4.08188 1.47071,-6.1289 -1.1621,-1.69762 -2.43813,-3.55465 -3.82813,-5.53711 a 0.01116,0.01116 0 0 1 -0.0117,-0.0117 C 645.12878,332.39389 477.32629,118.51583 284.03689,191.11469 h -0.008 z" fill="url('#logo-gradient')" />
  </g>
</svg>
